# xmcd
#
# Track frame offsets: 
#        150
#        12640
#        23057
#        33830
#        44637
#        54112
#        63522
#        76055
#        85330
#        97817
#        111340
#        122987
#
# Disc length: 1766 seconds
#
# Revision: 0
# Processed by: cddbd v1.4PL0 Copyright (c) Steve Scherf et al.
# Submitted via: ExactAudioCopy v0.90b4
#
DISCID=9206e40c
DTITLE=Merle Haggard and Bonnie Owens - Just Between The Two Of Us
DYEAR=2000
DGENRE=Country
TTITLE0=Just Between The Two Of Us
TTITLE1=A House Without Love Is Not A Home
TTITLE2=Slowley But Surely
TTITLE3=Our Hearts Are Holding Hands
TTITLE4=I Wanta Live Again
TTITLE5=Forever And Ever
TTITLE6=That Makes Two Of Us
TTITLE7=I'll Take A Chance
TTITLE8=Stranger In My Arms
TTITLE9=Too Used To Being With You
TTITLE10=So Much For Me, So Much For You
TTITLE11=Wait A Little Longer, Please Jesus
EXTD=
EXTT0=
EXTT1=
EXTT2=
EXTT3=
EXTT4=
EXTT5=
EXTT6=
EXTT7=
EXTT8=
EXTT9=
EXTT10=
EXTT11=
PLAYORDER=
